<?xml version="1.0" standalone="no"?>
<!DOCTYPE svg PUBLIC "-//W3C//DTD SVG 20010904//EN"
 "http://www.w3.org/TR/2001/REC-SVG-20010904/DTD/svg10.dtd">
<svg version="1.0" xmlns="http://www.w3.org/2000/svg"
 width="2560.000000pt" height="2560.000000pt" viewBox="0 0 2560.000000 2560.000000"
 preserveAspectRatio="xMidYMid meet">

<g transform="translate(0.000000,2560.000000) scale(0.100000,-0.100000)"
fill="#000000" stroke="none">
<path d="M18585 19851 c-99 -49 -225 -120 -280 -157 -55 -37 -142 -87 -194
-111 -83 -40 -105 -56 -195 -147 -56 -56 -155 -164 -221 -241 -66 -76 -196
-227 -289 -334 -431 -499 -577 -684 -838 -1057 -218 -312 -401 -559 -577 -779
-167 -208 -234 -281 -331 -358 l-75 -60 -3 29 c-4 41 107 736 182 1147 46 244
31 261 -27 32 -63 -246 -127 -556 -222 -1075 -31 -168 -58 -314 -61 -326 -6
-23 -141 -139 -193 -166 -29 -15 -61 -18 -178 -18 -164 0 -193 -8 -241 -66
-17 -21 -33 -36 -35 -33 -2 2 -25 85 -51 184 -146 543 -330 980 -550 1308
-116 174 -348 488 -354 482 -5 -5 24 -53 133 -220 159 -242 329 -562 437 -825
104 -251 268 -799 268 -896 0 -40 -3 -40 -97 2 -28 13 -58 24 -66 24 -8 0 -43
-19 -78 -41 -83 -54 -114 -65 -144 -51 -27 12 -63 77 -90 162 -43 132 -151
388 -160 378 -2 -1 21 -111 51 -243 55 -245 63 -309 43 -348 -26 -49 -44 -39
-146 85 -30 38 -59 66 -63 63 -4 -3 -11 -45 -15 -95 -4 -50 -10 -92 -14 -95
-4 -2 -65 44 -135 102 -85 70 -130 102 -135 94 -4 -6 -8 -35 -9 -64 -3 -89
-14 -177 -22 -182 -9 -6 -38 17 -147 113 -48 43 -74 60 -77 51 -3 -8 -10 -51
-16 -97 -12 -92 -27 -142 -42 -142 -14 0 -115 98 -184 179 -38 45 -61 65 -66
58 -4 -7 -8 -40 -8 -74 0 -64 -14 -148 -29 -172 -7 -11 -17 -8 -47 17 -22 17
-61 40 -88 53 -56 26 -78 57 -95 134 -7 30 -16 55 -21 55 -4 0 -13 -21 -19
-47 -7 -25 -25 -88 -42 -139 -24 -75 -36 -98 -68 -127 -21 -19 -56 -41 -77
-48 -71 -25 -498 -9 -527 20 -11 11 29 101 73 166 18 26 30 49 27 52 -3 2 -75
-32 -160 -76 -85 -45 -158 -81 -162 -81 -4 0 -5 30 -2 68 5 64 39 177 85 290
12 28 17 52 12 52 -5 0 -45 -41 -87 -92 -247 -292 -419 -438 -516 -438 -74 0
-64 31 77 245 150 227 150 239 -5 78 -134 -141 -275 -310 -333 -400 -28 -44
-54 -73 -64 -73 -10 0 -53 21 -96 46 -43 25 -82 42 -86 37 -4 -4 -14 -27 -23
-50 -31 -80 -59 -133 -71 -133 -6 0 -31 14 -56 30 -69 46 -84 42 -122 -37 -18
-36 -38 -68 -44 -70 -17 -6 -24 54 -30 277 -9 356 -22 373 -49 69 -23 -265
-34 -359 -46 -380 -5 -11 -42 -35 -81 -55 -40 -20 -89 -47 -110 -60 -75 -47
-107 -34 -391 169 -76 54 -188 129 -250 166 -115 69 -168 105 -292 196 -38 28
-140 97 -225 155 -208 138 -371 256 -450 324 -73 63 -231 183 -436 332 -76 56
-186 141 -244 189 -58 47 -134 105 -170 128 -35 23 -134 89 -220 146 -274 185
-330 221 -514 336 -219 136 -444 266 -529 305 -40 19 -113 38 -202 55 -171 31
-281 62 -446 125 -209 80 -237 82 -178 15 17 -20 30 -37 28 -39 -2 -2 -110 32
-240 75 -130 43 -256 81 -280 84 -42 6 -43 6 -24 -10 11 -9 72 -43 135 -77
129 -68 142 -76 134 -89 -8 -14 -63 -11 -124 6 -162 45 -286 75 -300 72 -8 -2
49 -36 128 -76 160 -80 160 -80 67 -126 -71 -34 -101 -74 -196 -260 l-79 -154
0 -208 c0 -285 17 -710 35 -873 31 -278 100 -554 240 -955 271 -780 443 -1306
559 -1710 60 -209 76 -338 76 -598 0 -154 20 -314 59 -467 16 -63 27 -117 25
-119 -8 -9 -61 27 -188 129 -72 58 -187 151 -256 206 -361 291 -742 551 -1150
786 -253 146 -877 454 -902 446 -10 -4 55 -41 447 -258 742 -410 1335 -822
1873 -1302 227 -202 275 -272 291 -420 6 -48 17 -101 25 -117 9 -17 16 -33 16
-36 0 -10 -52 7 -346 111 -791 280 -1534 455 -2098 495 -234 16 -880 6 -1036
-16 -234 -33 -691 -132 -714 -155 -16 -16 4 -13 235 30 415 77 665 96 1129 87
836 -17 1433 -146 2535 -545 176 -63 323 -120 326 -125 4 -5 9 -35 13 -66 15
-129 32 -150 124 -152 l47 -2 -55 -7 c-30 -5 -95 -14 -145 -20 -241 -30 -566
-143 -911 -315 -300 -149 -888 -478 -949 -531 l-30 -25 33 5 c17 3 139 57 270
120 376 180 511 232 662 256 114 17 665 25 828 11 144 -13 209 -24 224 -39 22
-22 58 -418 58 -636 0 -157 -6 -170 -95 -207 -59 -24 -64 -32 -38 -61 15 -17
15 -19 -3 -39 -10 -12 -48 -38 -84 -59 -93 -54 -119 -77 -101 -89 13 -9 94
-23 226 -39 l60 -8 -100 -52 c-142 -73 -138 -66 -55 -93 39 -12 81 -30 93 -39
l21 -17 -34 -32 c-19 -18 -61 -48 -92 -69 -32 -20 -58 -39 -58 -42 0 -3 29
-11 65 -18 171 -32 190 -69 95 -187 -55 -68 -90 -128 -90 -155 0 -29 33 -53
90 -65 58 -13 100 -37 100 -58 0 -21 -50 -73 -81 -82 -29 -10 -23 -30 27 -86
75 -85 79 -119 18 -166 -64 -48 -67 -86 -8 -97 19 -4 34 -11 34 -17 0 -5 -23
-37 -50 -70 -57 -68 -80 -109 -80 -139 0 -28 -25 -25 -50 7 -12 15 -73 130
-135 255 -177 354 -259 484 -443 704 -144 173 -212 266 -293 398 -107 178
-207 279 -336 343 -67 33 -78 35 -137 31 -84 -7 -95 0 -262 167 -73 74 -151
143 -173 155 -54 27 -167 50 -271 55 -91 4 -123 14 -300 98 -52 24 -120 50
-151 57 -73 16 -293 8 -369 -14 -31 -9 -133 -20 -235 -26 -99 -6 -202 -15
-229 -21 -28 -5 -138 -52 -245 -103 -223 -107 -263 -121 -382 -135 -102 -12
-144 -25 -232 -75 -98 -54 -179 -135 -262 -260 -40 -61 -130 -174 -200 -251
-180 -200 -192 -219 -226 -367 -36 -161 -67 -245 -150 -408 -90 -177 -177
-309 -240 -362 -117 -98 -124 -145 -110 -693 12 -441 17 -555 26 -563 8 -9
655 -16 719 -8 47 6 56 11 56 27 0 11 -22 73 -49 137 -27 64 -92 219 -144 343
-114 274 -169 380 -223 436 -33 36 -47 43 -78 43 -32 0 -44 -7 -89 -55 -28
-30 -57 -55 -63 -55 -22 0 -48 54 -48 100 -1 58 29 117 105 205 181 210 374
593 409 807 20 125 29 143 168 298 52 58 153 183 225 279 182 241 236 281 433
315 132 23 275 76 490 184 135 67 160 72 339 70 146 -2 170 1 270 26 94 24
124 27 210 24 120 -5 177 -24 317 -104 l99 -57 132 -8 c73 -4 151 -15 175 -23
81 -29 160 -96 298 -253 42 -49 88 -94 102 -102 14 -7 75 -17 135 -22 187 -13
238 -52 370 -277 85 -145 153 -239 302 -419 185 -222 268 -356 448 -717 65
-132 134 -264 154 -295 70 -110 152 -337 216 -597 39 -159 68 -232 104 -266
22 -20 34 -23 111 -23 125 0 205 36 105 48 -39 4 -54 12 -84 44 -44 48 -67
106 -130 338 -72 263 -77 291 -56 312 15 15 23 16 79 4 90 -18 259 -74 433
-142 183 -72 259 -110 263 -130 5 -25 -83 -115 -138 -142 -48 -24 -49 -24 -24
-36 14 -6 24 -17 22 -24 -2 -6 -53 -51 -114 -100 -60 -48 -110 -91 -112 -96
-5 -15 38 -21 223 -31 547 -30 2202 -40 3249 -21 l458 9 257 -95 c462 -171
575 -206 673 -211 92 -5 244 6 528 38 394 45 645 88 733 127 l57 26 81 -32
c126 -49 164 -40 140 32 -27 80 -133 189 -255 261 -141 84 -222 21 -182 -139
32 -128 19 -144 -80 -95 -70 34 -195 144 -220 192 -18 34 -20 131 -4 172 84
221 548 399 1045 400 238 1 387 -30 556 -115 126 -63 169 -110 169 -187 0 -52
-19 -94 -73 -168 -92 -125 -217 -234 -269 -234 -25 0 -28 3 -28 34 0 19 11 66
25 104 14 38 25 81 25 96 0 59 -96 104 -192 92 -133 -18 -227 -98 -243 -207
-8 -57 10 -181 33 -229 25 -52 51 -50 116 9 31 28 63 51 72 51 9 0 29 -11 45
-24 54 -45 187 -60 674 -76 182 -5 378 -12 436 -15 l107 -5 123 79 c371 236
553 282 1424 365 646 62 969 75 2327 92 l507 6 20 67 c53 177 131 455 131 467
0 22 -45 18 -477 -36 -1017 -129 -1645 -241 -2622 -470 -465 -108 -662 -144
-754 -138 -26 2 -48 8 -48 13 -1 15 118 58 359 131 724 218 1652 382 2952 520
468 50 611 69 621 85 16 27 98 285 101 319 l3 35 -55 -3 c-163 -10 -723 -110
-1645 -292 -699 -139 -1318 -251 -1450 -264 l-60 -6 37 14 c195 76 2283 474
2888 551 69 8 165 23 213 31 84 16 89 18 113 54 14 20 63 120 110 221 170 367
221 443 419 619 145 128 196 196 250 331 85 211 164 337 231 370 62 29 174 27
314 -7 l109 -26 133 92 c73 51 169 116 213 146 l80 53 145 11 c190 14 335 35
440 65 47 14 103 27 125 31 71 10 174 -20 342 -100 87 -41 176 -78 198 -81 22
-4 85 -2 141 4 178 18 242 -1 437 -136 134 -92 207 -127 317 -148 154 -31 195
-63 331 -260 96 -140 201 -273 305 -387 94 -102 112 -133 169 -297 61 -175
120 -307 203 -453 65 -116 98 -162 230 -323 79 -97 103 -144 109 -215 6 -63
-7 -100 -36 -100 -10 0 -38 25 -62 55 -74 93 -129 93 -202 3 -73 -92 -138
-237 -280 -623 -114 -311 -112 -303 -103 -312 11 -11 348 -19 573 -13 162 4
195 8 209 22 14 14 18 54 26 260 13 346 7 826 -11 858 -8 14 -55 75 -106 135
-103 124 -164 212 -252 365 -122 212 -183 352 -183 419 0 36 -53 145 -103 211
-22 30 -77 96 -122 145 -107 120 -176 208 -266 340 -132 195 -213 256 -389
290 -104 21 -179 56 -290 135 -179 129 -297 166 -490 155 -139 -9 -159 -4
-345 80 -77 35 -169 71 -205 80 -89 23 -202 16 -294 -19 -90 -34 -216 -56
-325 -56 -110 0 -205 -14 -273 -40 -29 -11 -120 -63 -203 -115 -184 -117 -200
-123 -310 -107 -148 22 -185 47 -99 70 25 7 61 19 81 27 l36 15 -131 129
c-158 154 -175 186 -114 210 15 5 66 18 113 27 105 20 115 25 101 51 -12 21
-73 73 -136 116 -26 17 -35 28 -25 31 8 2 31 10 51 16 80 24 60 47 -81 93
l-105 34 90 50 c103 58 114 79 61 112 -48 29 -58 44 -61 88 -2 26 -16 56 -41
92 -40 55 -85 165 -85 206 0 13 15 41 32 61 28 32 33 46 39 113 4 48 17 102
35 144 32 77 28 93 -24 116 -18 8 -32 20 -32 27 0 18 99 90 162 118 74 33 241
83 463 139 577 146 1028 197 1737 197 480 0 757 -19 1093 -76 465 -79 811
-197 1359 -463 126 -61 231 -109 234 -107 11 12 -230 150 -421 241 -529 254
-1006 393 -1542 450 -475 51 -1267 35 -1775 -36 -165 -23 -466 -82 -680 -133
-257 -61 -409 -87 -509 -87 -51 0 -95 2 -98 4 -2 3 73 46 167 97 93 50 168 95
165 100 -2 4 -42 11 -87 14 -102 9 -218 32 -232 47 -8 7 -3 17 17 34 15 13 27
26 27 28 0 3 -26 10 -59 16 -83 16 -96 34 -94 130 0 43 19 167 43 286 46 231
49 283 36 555 -6 108 -5 227 3 345 14 213 6 331 -39 575 -17 91 -46 257 -66
370 -19 113 -48 261 -63 330 -40 171 -42 190 -51 475 -6 198 -12 259 -25 295
-14 36 -19 98 -26 315 -10 338 -14 399 -49 775 -16 168 -36 394 -45 502 -29
367 -69 517 -248 928 -30 69 -74 177 -97 240 -58 156 -117 271 -211 413 -43
65 -79 123 -79 127 0 5 9 12 20 15 11 3 20 10 20 16 0 9 -136 76 -303 149 -63
27 -94 46 -86 51 7 4 41 13 76 19 35 7 62 15 59 17 -2 3 -61 0 -131 -7 -121
-11 -175 -9 -175 8 0 12 97 56 225 102 l110 40 -79 -6 c-89 -7 -222 -37 -371
-85 -106 -33 -318 -99 -322 -99 -2 0 -3 5 -3 10 0 6 52 51 115 101 63 50 115
93 115 95 0 13 -43 -5 -205 -85z m241 -741 c44 -17 17 -30 -138 -66 -168 -38
-285 -83 -406 -155 -178 -107 -254 -172 -639 -551 -166 -163 -312 -302 -323
-308 -21 -11 -21 -11 -6 17 53 104 418 528 614 714 202 192 402 317 553 344
89 16 307 19 345 5z m71 -152 c29 -6 76 -23 105 -37 43 -21 53 -32 53 -51 0
-25 -20 -35 -109 -55 -29 -6 -28 -8 43 -46 40 -22 75 -47 78 -56 3 -8 -2 -28
-11 -45 -22 -35 -16 -44 66 -99 32 -22 58 -43 58 -46 0 -4 -7 -14 -15 -23 -20
-22 -12 -31 95 -110 47 -35 117 -96 156 -136 66 -67 134 -156 134 -176 0 -39
-242 78 -450 217 -121 81 -138 90 -123 64 32 -54 121 -161 262 -314 291 -314
362 -421 478 -718 29 -77 51 -142 48 -145 -6 -6 -363 350 -624 623 l-163 170
46 -90 c107 -211 264 -420 530 -704 296 -316 349 -401 251 -401 -84 0 -225
104 -493 363 -107 103 -198 187 -203 187 -6 0 -4 -10 2 -22 23 -44 198 -304
278 -412 44 -61 79 -111 78 -112 -1 -2 -59 17 -127 41 -147 53 -326 99 -465
121 -134 22 -502 30 -647 15 -467 -49 -872 -196 -1274 -463 -179 -119 -288
-178 -332 -181 -36 -3 -50 36 -34 91 29 96 114 192 494 557 141 136 194 200
357 434 80 114 147 176 248 229 125 65 215 86 363 86 173 1 301 -31 539 -134
40 -17 75 -29 78 -26 10 9 -94 77 -192 125 -268 132 -521 186 -687 147 -127
-30 -277 -121 -423 -258 -37 -34 -159 -162 -270 -283 -262 -285 -481 -497
-552 -534 -26 -13 -63 -15 -63 -2 0 18 199 289 379 516 104 131 636 753 820
960 268 299 560 568 707 651 162 91 338 119 511 82z m-12926 -1504 c196 -37
380 -118 644 -285 537 -337 1205 -823 1205 -875 0 -41 -92 3 -306 144 -290
191 -458 280 -581 308 -60 13 -109 15 -247 12 -180 -5 -205 -10 -322 -65 l-59
-28 250 -6 c274 -7 320 -14 433 -71 58 -29 221 -156 267 -208 l20 -23 -35 6
c-90 16 -337 29 -440 23 -140 -7 -178 -19 -376 -120 -165 -83 -305 -172 -374
-236 l-45 -41 75 41 c161 89 335 169 408 189 125 33 258 44 462 38 211 -7 296
-22 490 -87 390 -131 783 -370 1128 -688 124 -114 133 -129 102 -154 -53 -43
-165 -9 -340 103 -277 178 -480 264 -738 311 -233 43 -796 23 -917 -32 -40
-18 -36 -18 300 -17 319 2 346 1 442 -21 193 -42 389 -119 478 -187 69 -53
261 -222 375 -331 52 -50 126 -120 164 -155 110 -102 286 -298 286 -319 0 -26
-25 -31 -95 -20 -101 17 -105 13 -35 -31 77 -49 114 -82 145 -129 35 -54 142
-168 468 -499 555 -565 792 -840 1021 -1187 87 -133 218 -361 231 -403 14 -45
-12 -12 -89 116 -241 400 -761 1030 -1232 1494 -359 352 -535 461 -846 523
-144 28 -232 60 -326 115 -135 80 -476 219 -739 300 -146 44 -387 100 -558
128 -144 24 -594 24 -723 1 -45 -8 -84 -13 -87 -10 -4 4 69 102 228 305 42 54
77 103 77 108 0 17 -72 -27 -156 -95 -45 -36 -144 -125 -221 -199 -138 -133
-174 -162 -187 -150 -13 13 -5 101 15 173 23 84 84 235 158 393 27 59 48 107
45 107 -2 0 -61 -54 -129 -120 -68 -66 -129 -120 -136 -120 -19 0 9 196 54
387 9 35 11 65 7 68 -8 5 -20 -7 -113 -125 -61 -78 -72 -74 -71 25 2 80 5 93
73 285 17 47 30 99 30 115 l0 30 -28 -33 c-16 -18 -50 -71 -77 -117 -27 -47
-52 -85 -55 -85 -12 0 -18 322 -8 476 16 270 55 451 120 559 69 115 198 206
364 255 l70 20 -75 -5 c-146 -11 -211 -38 -390 -165 -63 -45 -116 -76 -118
-71 -5 16 62 135 115 203 112 147 287 197 524 152z m12722 -564 c242 -11 361
-29 507 -76 144 -48 242 -97 400 -202 146 -97 215 -155 205 -172 -9 -15 -139
-12 -207 5 -33 9 -85 27 -115 41 -31 13 -58 22 -60 20 -20 -20 106 -151 280
-290 115 -93 114 -102 -18 -100 -63 1 -104 9 -193 38 -63 20 -118 36 -124 36
-21 0 18 -34 137 -118 154 -110 185 -134 185 -149 0 -23 -74 -38 -190 -38
-104 0 -124 3 -215 34 -143 48 -312 114 -300 117 6 2 66 8 134 14 68 6 128 13
134 17 24 15 -36 24 -220 33 -109 5 -211 12 -228 15 -456 81 -791 102 -1118
70 -166 -16 -343 -59 -622 -149 -167 -55 -225 -66 -225 -46 0 84 353 477 539
602 265 177 569 277 900 297 182 11 186 11 414 1z m-285 -799 c431 -66 708
-190 1024 -459 172 -146 339 -303 335 -316 -2 -6 -30 -17 -63 -23 -117 -25
-184 -45 -184 -57 0 -6 36 -23 80 -39 93 -32 216 -98 269 -144 l36 -32 -35 -1
c-19 0 -73 7 -120 15 -154 27 -160 20 -69 -82 80 -90 128 -191 183 -388 262
-937 250 -882 250 -1120 -1 -146 -5 -189 -28 -300 -55 -263 -71 -467 -42 -523
8 -15 45 -53 82 -85 70 -61 124 -122 124 -141 0 -22 -17 -35 -83 -65 -77 -35
-74 -25 -53 -186 7 -55 10 -110 5 -121 -9 -25 -11 -26 -198 -64 -161 -33 -191
-36 -191 -17 0 21 36 50 170 132 125 78 170 111 170 127 0 27 -116 -22 -308
-129 -74 -41 -135 -73 -136 -71 -2 2 -19 37 -39 78 -20 42 -52 90 -72 109 -20
18 -35 38 -32 44 27 72 31 91 22 94 -47 19 -120 60 -123 70 -2 6 22 39 52 72
79 86 77 94 -41 141 -42 16 -43 41 -2 121 16 33 29 70 27 82 -3 21 -7 22 -106
19 -84 -2 -103 0 -108 12 -19 49 153 210 284 266 53 23 66 44 34 54 -10 4 -74
10 -142 16 -67 5 -127 13 -133 19 -7 7 15 38 65 93 95 105 158 186 158 202 0
14 -51 31 -125 42 -101 14 -119 35 -65 74 16 12 112 57 211 100 181 78 209 94
196 106 -8 8 -171 7 -244 -2 -29 -3 -53 -4 -53 -1 0 3 29 44 64 90 127 169
202 345 213 503 6 81 -11 167 -39 201 -25 31 -81 -42 -192 -249 -102 -190
-163 -257 -359 -388 -94 -63 -168 -90 -242 -90 -46 0 -55 3 -55 18 0 23 73
141 147 238 92 119 107 144 97 154 -15 15 -154 -25 -327 -95 -294 -120 -287
-117 -287 -97 0 23 77 158 132 231 106 142 232 261 276 261 8 0 40 -12 71 -27
107 -52 283 -39 441 33 106 48 140 100 140 213 0 117 -50 229 -112 250 -47 17
-115 13 -156 -8 -20 -11 -68 -46 -107 -80 -137 -119 -174 -145 -208 -143 -18
0 -78 4 -134 8 -193 12 -297 -28 -624 -243 -236 -155 -296 -182 -348 -153 -23
12 -51 80 -51 123 1 139 266 393 594 571 182 99 455 205 696 271 74 20 137 39
140 42 6 6 -98 -4 -195 -18 -104 -16 -252 -54 -341 -89 -222 -88 -761 -346
-931 -446 -129 -76 -136 -73 -77 35 39 71 83 131 148 199 22 23 37 42 32 42
-17 0 -236 -112 -320 -164 -50 -31 -92 -54 -94 -51 -10 10 70 136 133 208 168
192 375 359 608 491 27 15 46 30 43 33 -18 18 -342 -144 -507 -254 -146 -97
-219 -155 -293 -234 l-60 -63 -13 33 c-17 41 -8 72 47 164 22 36 40 68 40 71
0 24 -133 -50 -276 -154 -45 -33 -88 -60 -95 -60 -18 0 -6 79 31 193 17 55 29
101 27 103 -3 3 -84 -36 -180 -85 -97 -50 -183 -91 -191 -91 -24 0 -20 46 9
108 41 89 146 232 235 322 205 205 472 327 818 370 118 15 502 4 650 -19z
m-5564 -340 c11 -100 -29 -451 -65 -568 -6 -18 -17 -33 -25 -33 -19 0 -79 128
-98 207 l-14 58 -17 -40 c-14 -33 -16 -64 -13 -187 1 -81 0 -141 -4 -134 -4 7
-27 67 -51 132 -49 131 -107 253 -131 273 -48 40 -70 -21 -109 -291 -13 -93
-26 -158 -33 -158 -24 0 -107 122 -198 293 -32 59 -60 107 -63 107 -3 0 -2
-85 2 -190 5 -133 4 -190 -3 -190 -15 0 -116 166 -180 298 l-55 112 24 26 c33
36 124 80 211 103 82 22 160 34 366 56 210 23 291 53 397 148 22 20 43 36 46
37 4 0 9 -26 13 -59z m-6169 -751 c331 -50 642 -141 1015 -298 l135 -57 -115
-6 c-63 -4 -184 -7 -268 -8 -256 -2 -400 -24 -618 -96 -148 -49 -374 -161
-453 -225 -35 -29 -78 -58 -95 -65 -46 -19 -208 -23 -236 -5 -22 14 5 38 115
105 151 91 149 104 -10 60 -94 -26 -228 -34 -240 -15 -7 11 3 21 166 175 71
68 81 80 62 83 -12 2 -50 -8 -85 -22 -95 -37 -148 -49 -197 -42 -68 9 -121 28
-121 42 0 18 79 94 163 157 81 60 77 65 -50 66 -132 1 -164 25 -100 73 53 41
108 65 187 82 116 24 121 25 370 21 174 -3 272 -9 375 -25z m3298 -610 c85
-212 209 -515 275 -675 211 -512 335 -845 316 -845 -33 0 -786 1881 -784 1958
1 31 35 -46 193 -438z m4395 -295 c4 -675 -4 -1092 -20 -1005 -11 62 -22 1349
-13 1544 6 125 10 155 18 140 8 -13 13 -220 15 -679z m582 480 c0 -11 -5 -27
-10 -35 -7 -11 -10 -1 -10 35 0 36 3 46 10 35 5 -8 10 -24 10 -35z m420 5 c0
-6 -7 -25 -17 -43 -20 -39 -30 -19 -13 24 12 28 30 40 30 19z m-7460 -49 c156
-17 212 -47 432 -235 179 -154 418 -385 418 -405 0 -17 -53 -12 -248 24 -144
27 -182 30 -182 16 0 -11 73 -56 195 -121 375 -201 788 -514 1107 -836 200
-203 289 -318 423 -547 31 -53 116 -179 187 -279 200 -280 257 -388 258 -481
0 -43 -4 -53 -35 -84 -32 -32 -39 -35 -80 -31 -64 8 -121 54 -285 234 -226
247 -462 452 -715 621 -49 33 -184 117 -300 186 -115 69 -219 133 -230 142
-18 14 -16 14 20 -1 22 -9 47 -18 55 -22 32 -12 302 -162 425 -237 72 -43 247
-155 390 -250 224 -149 350 -225 370 -225 15 0 -3 37 -74 152 -103 167 -108
197 -44 252 l24 21 -35 70 c-51 100 -149 215 -352 415 -327 321 -678 605 -964
777 -129 78 -370 201 -482 246 -185 75 -514 108 -706 72 -299 -57 -711 -252
-857 -405 l-40 -42 55 31 c227 131 536 256 714 288 113 21 464 24 576 5 102
-16 314 -83 298 -94 -7 -4 -43 -8 -80 -8 -37 0 -90 -5 -119 -11 -51 -11 -51
-12 -46 -43 3 -18 39 -105 81 -194 42 -89 77 -172 79 -184 2 -20 -2 -23 -26
-20 -15 2 -69 21 -120 42 -347 145 -767 195 -1040 124 -77 -20 -199 -80 -291
-144 -85 -59 -192 -153 -208 -183 -13 -25 -15 -26 62 35 142 112 266 141 665
155 228 7 223 9 340 -112 133 -137 176 -232 113 -249 -39 -10 -145 -6 -378 14
-123 10 -226 17 -229 14 -8 -8 26 -69 78 -138 28 -37 51 -71 51 -77 0 -13 -42
-2 -140 39 -93 38 -233 82 -263 82 -39 0 -7 -27 93 -76 l104 -51 -125 -5 c-68
-3 -132 -9 -141 -13 -53 -22 4 -59 222 -146 177 -70 229 -95 323 -156 117 -75
83 -97 -168 -107 -174 -8 -309 -23 -339 -39 -26 -13 -26 -12 167 -116 249
-135 291 -175 210 -202 -64 -21 -584 -2 -700 26 -80 19 -181 229 -232 482 -73
363 -36 730 96 963 14 25 77 123 140 218 64 95 113 175 111 178 -3 2 -36 -6
-74 -18 -123 -39 -214 -26 -214 31 0 35 87 170 189 293 161 196 398 300 761
337 116 11 625 13 730 2z m2531 -28 c-9 -16 -10 -14 -11 12 0 21 3 26 11 18 8
-8 8 -16 0 -30z m4459 -300 c-24 -182 -58 -385 -67 -393 -14 -12 38 425 69
590 l13 65 3 -52 c2 -29 -6 -123 -18 -210z m381 71 c-32 -135 -99 -372 -224
-789 -41 -137 -100 -335 -131 -439 -56 -187 -75 -239 -76 -205 0 19 40 218 70
344 78 331 378 1284 388 1234 2 -9 -11 -74 -27 -145z m-4707 -314 c58 -228
130 -514 161 -634 31 -121 54 -229 53 -240 -11 -66 -227 739 -303 1129 -14 72
-28 141 -31 155 -4 16 -2 22 4 15 6 -5 58 -197 116 -425z m4243 -312 c-2 -13
-4 -5 -4 17 -1 22 1 32 4 23 2 -10 2 -28 0 -40z m1271 -36 c-18 -15 -105 -84
-192 -152 -88 -69 -204 -167 -258 -219 -175 -167 -248 -271 -396 -570 -113
-225 -168 -302 -226 -317 -61 -15 -93 37 -76 122 55 265 462 697 983 1045 175
116 231 147 165 91z m-2360 -459 c34 -48 138 -264 184 -383 70 -177 73 -197
72 -445 0 -236 -9 -307 -64 -535 -41 -168 -50 -251 -59 -578 -4 -161 -11 -295
-14 -299 -4 -3 -13 -1 -20 5 -22 18 -99 181 -117 247 l-17 59 -19 -29 c-27
-42 -23 -195 10 -405 47 -290 57 -382 58 -525 0 -77 -5 -165 -11 -197 -14 -66
-53 -117 -76 -98 -34 28 -78 245 -95 470 -6 74 -15 398 -20 720 -6 358 -13
603 -20 631 -14 61 -69 125 -118 139 -20 5 -64 10 -96 10 l-59 0 6 288 c6 306
16 447 47 662 40 274 51 262 195 -206 141 -458 184 -589 200 -610 18 -24 18
-22 -1 141 -10 83 -17 266 -21 505 -6 443 2 508 55 433z m-2380 -117 c108
-251 169 -489 227 -886 59 -400 88 -499 251 -866 114 -257 165 -392 193 -500
44 -175 46 -215 45 -769 -1 -576 -5 -623 -54 -710 -30 -53 -86 -113 -96 -103
-3 4 -16 66 -29 140 -13 73 -33 178 -45 233 -38 177 -60 354 -80 655 -25 371
-43 540 -75 696 -33 164 -71 264 -157 414 -162 284 -309 590 -368 769 -29 86
-55 232 -48 267 2 11 30 -60 63 -156 67 -201 105 -292 113 -271 3 8 -1 80 -9
160 -21 223 -19 670 5 854 11 81 22 147 25 147 4 0 21 -33 39 -74z m-4293
-246 c4 -6 -7 -10 -24 -10 -17 0 -31 5 -31 10 0 6 11 10 24 10 14 0 28 -4 31
-10z m9515 1 c0 -5 -26 -17 -57 -25 -124 -34 -394 -126 -498 -171 -60 -25
-211 -97 -335 -159 -124 -63 -235 -117 -247 -120 -66 -21 21 71 141 149 186
121 404 210 686 281 190 47 310 65 310 45z m3503 -905 c91 -18 146 -44 189
-92 34 -36 148 -230 148 -250 0 -8 -20 -6 -62 8 -35 10 -133 38 -218 60 -176
46 -218 64 -242 105 -13 22 -58 163 -58 180 0 9 181 1 243 -11z m-3893 -121
c581 -129 964 -549 1030 -1130 50 -443 -93 -883 -376 -1157 -90 -87 -122 -112
-251 -194 -62 -40 -101 -70 -92 -72 35 -7 316 118 409 181 78 53 200 168 287
272 187 222 273 512 260 875 -8 235 -37 337 -187 659 -76 166 -89 201 -72 201
16 0 93 -50 188 -122 144 -107 218 -156 280 -185 30 -13 52 -29 48 -34 -3 -5
-32 -23 -65 -39 -32 -17 -59 -34 -59 -39 0 -13 153 -81 182 -81 53 0 49 -16
-27 -105 l-39 -47 32 -30 c18 -16 46 -31 63 -35 16 -3 32 -10 36 -16 4 -6 -19
-34 -51 -62 l-58 -52 56 -23 c31 -12 59 -27 62 -32 10 -15 -22 -53 -62 -73
-82 -41 -91 -63 -49 -113 14 -17 25 -35 25 -42 0 -31 -144 -282 -271 -472 -72
-109 -228 -267 -345 -350 -241 -172 -683 -389 -910 -447 -109 -28 -378 -49
-830 -63 l-382 -12 -82 50 c-82 49 -170 131 -170 157 0 31 26 38 71 22 74 -28
110 -34 234 -45 66 -6 180 -22 253 -36 73 -13 174 -29 225 -34 87 -9 555 -14
546 -6 -2 2 -69 14 -149 26 -378 56 -613 131 -788 252 -116 80 -279 261 -372
413 -232 378 -283 768 -154 1174 144 456 524 785 1009 875 108 21 438 15 545
-9z m-7480 -91 c306 -27 615 -82 875 -154 124 -35 262 -97 248 -111 -12 -12
-85 2 -338 66 -516 131 -1160 193 -1595 155 -58 -5 -145 -12 -195 -15 -206
-12 115 42 380 64 72 6 148 13 170 15 61 6 271 -3 455 -20z m-1145 -84 c4 -6
-8 -10 -30 -10 -22 0 -34 4 -30 10 3 6 17 10 30 10 13 0 27 -4 30 -10z m-1025
-20 c22 -11 40 -25 40 -30 0 -12 -75 24 -85 40 -9 15 1 12 45 -10z m178 -113
c20 -12 30 -23 24 -25 -16 -5 -64 23 -92 54 l-25 28 29 -18 c16 -10 45 -28 64
-39z m-205 26 c-13 -2 -35 -2 -50 0 -16 2 -5 4 22 4 28 0 40 -2 28 -4z m477
-73 c-24 -14 -120 -50 -120 -45 0 11 88 55 110 55 20 -1 22 -3 10 -10z m-886
-59 c9 -10 28 -70 41 -137 14 -65 34 -136 45 -158 11 -22 17 -42 15 -44 -3 -3
-67 1 -142 9 -177 17 -710 15 -885 -3 -71 -8 -128 -11 -128 -8 0 6 103 54 290
135 217 94 462 175 655 218 49 11 92 6 109 -12z m676 -64 c106 -35 408 -180
416 -201 3 -7 -9 -41 -26 -77 -16 -35 -30 -72 -30 -81 0 -9 23 -41 50 -71 28
-30 50 -60 50 -66 0 -20 -40 -32 -171 -51 -72 -10 -133 -20 -135 -23 -2 -2 27
-24 64 -50 37 -25 96 -72 130 -103 72 -64 78 -92 29 -128 -24 -18 -41 -21
-110 -19 l-82 2 70 -35 c86 -43 97 -56 89 -106 -8 -48 6 -65 100 -121 l69 -41
-44 -40 c-84 -75 -211 -149 -364 -212 -44 -18 -81 -37 -83 -42 -1 -4 36 -23
83 -41 50 -19 85 -37 82 -44 -2 -7 -39 -33 -83 -59 -50 -30 -79 -54 -79 -65 0
-20 69 -63 103 -63 32 0 27 -21 -14 -61 -60 -57 -63 -100 -9 -113 14 -4 25
-12 25 -20 0 -19 -40 -75 -131 -183 -44 -52 -86 -108 -95 -125 -14 -27 -14
-32 0 -53 19 -29 71 -45 146 -45 31 0 61 -5 67 -11 6 -6 9 -35 6 -73 -5 -59
-4 -65 26 -98 17 -19 28 -38 24 -42 -3 -3 -35 -6 -70 -6 -89 0 -91 -15 -14
-95 74 -77 78 -105 21 -142 -19 -12 -46 -30 -59 -39 l-24 -17 21 -17 c11 -9
64 -29 119 -45 106 -30 133 -41 133 -55 0 -15 -40 -48 -98 -81 -29 -16 -50
-34 -47 -39 3 -5 54 -44 113 -87 59 -42 109 -78 112 -80 2 -2 -29 -37 -70 -77
l-75 -74 -190 72 c-104 40 -255 96 -335 124 -79 29 -153 60 -164 71 -19 19
-19 20 8 65 14 25 62 92 105 150 l78 105 -38 160 c-20 88 -45 209 -54 268 -23
153 -22 150 -55 183 -22 22 -30 40 -30 65 0 51 36 137 85 204 74 100 78 111
70 215 -6 82 -3 102 25 211 32 119 32 121 24 265 -17 272 -1 811 27 941 6 27
21 63 34 81 14 18 32 43 40 55 22 29 14 49 -45 117 -28 32 -50 63 -50 71 0 43
82 40 230 -8z m210 18 c10 -12 9 -15 -8 -15 -11 0 -25 7 -32 15 -10 12 -9 15
8 15 11 0 25 -7 32 -15z m130 -60 c52 -26 70 -52 25 -35 -41 15 -83 39 -90 50
-10 17 13 11 65 -15z m3314 -341 c390 -63 751 -345 930 -725 98 -209 131 -356
130 -594 0 -136 -4 -193 -22 -283 -48 -241 -126 -402 -263 -546 -131 -137
-263 -228 -525 -359 -183 -92 -336 -158 -474 -204 -103 -35 -107 -36 -225 -30
-190 9 -466 76 -715 173 -231 90 -357 180 -628 447 -151 148 -212 227 -212
270 0 18 -18 84 -40 147 -47 132 -65 208 -75 301 -9 83 2 110 89 214 37 44
106 134 153 200 104 146 151 205 164 205 13 0 11 -60 -6 -170 -56 -359 -33
-671 67 -927 65 -169 187 -333 352 -475 131 -112 319 -194 582 -253 104 -23
275 -44 264 -32 -3 2 -68 28 -145 57 -190 71 -272 110 -374 177 -99 66 -276
237 -344 334 -141 199 -212 430 -224 719 -11 280 49 528 180 744 278 458 815
699 1361 610z m4148 -1151 c43 -49 118 -242 118 -304 0 -115 -140 59 -172 213
-18 86 13 137 54 91z m-2947 -603 c22 -24 25 -122 5 -160 -33 -65 -77 -79
-106 -35 -20 31 -13 109 16 166 27 53 55 62 85 29z m4565 -1060 c0 -5 -11 -10
-25 -10 -14 0 -25 5 -25 10 0 6 11 10 25 10 14 0 25 -4 25 -10z m-8932 -449
c151 -85 223 -131 207 -131 -15 0 -282 147 -347 191 -64 43 -87 69 -36 40 18
-11 97 -55 176 -100z m291 -165 c15 -8 34 -22 41 -31 13 -16 11 -16 -25 -1
-44 19 -78 46 -57 46 7 0 25 -6 41 -14z"/>
<path d="M15650 11451 c-112 -36 -237 -109 -322 -189 -67 -62 -64 -78 15 -87
109 -12 181 -58 223 -142 28 -57 27 -203 -3 -259 -42 -80 -116 -124 -206 -124
-47 0 -52 -13 -33 -81 8 -30 18 -79 21 -109 6 -47 4 -59 -15 -82 -23 -30 -89
-53 -121 -43 -85 27 -170 192 -184 357 -10 122 -14 141 -29 128 -33 -27 -71
-266 -61 -385 23 -281 140 -537 334 -734 164 -167 370 -253 601 -253 241 1
446 82 610 242 88 86 142 162 206 291 64 129 74 185 74 434 0 248 -8 293 -81
444 -159 333 -387 531 -683 592 -118 24 -271 24 -346 0z"/>
<path d="M10092 10545 c-87 -30 -163 -68 -180 -88 -15 -18 2 -38 57 -66 124
-64 176 -265 101 -389 -42 -69 -180 -129 -266 -116 l-45 6 28 -53 c21 -41 28
-68 28 -112 0 -53 -3 -61 -31 -87 -18 -16 -50 -31 -73 -35 -55 -9 -95 15 -143
85 -62 92 -80 151 -86 277 -4 110 3 154 53 308 4 11 -14 -2 -39 -29 -57 -63
-120 -188 -146 -290 -39 -156 -50 -509 -18 -631 47 -185 211 -419 380 -543 76
-56 201 -117 266 -131 67 -14 412 -14 472 0 111 25 285 140 386 254 108 121
180 259 226 432 19 75 23 113 23 253 0 140 -4 178 -24 255 -70 273 -250 506
-492 639 -76 42 -201 73 -319 81 -74 5 -94 3 -158 -20z"/>
<path d="M19478 19808 c8 -8 17 -8 34 0 22 10 21 11 -11 11 -27 1 -32 -2 -23
-11z"/>
<path d="M3278 13968 c12 -12 25 -18 29 -14 4 4 -1 14 -11 22 -31 22 -43 17
-18 -8z"/>
<path d="M22225 10178 c-71 -47 -145 -151 -225 -313 -152 -309 -206 -588 -140
-728 43 -91 142 -147 234 -131 129 21 238 125 336 322 141 282 170 617 66 770
-50 74 -97 105 -164 110 -52 4 -62 1 -107 -30z"/>
<path d="M2900 10089 c-84 -33 -140 -152 -140 -293 0 -281 217 -718 402 -812
96 -49 196 -16 255 83 25 43 28 57 27 128 -4 241 -162 670 -303 819 -66 70
-171 103 -241 75z"/>
<path d="M23049 10070 c-116 -20 -222 -142 -310 -356 -103 -252 -198 -578
-264 -905 -68 -342 -121 -506 -242 -741 -65 -125 -106 -188 -117 -178 -8 8 17
108 59 235 113 344 155 515 155 637 0 110 -32 150 -97 123 -66 -28 -142 -161
-281 -495 -152 -365 -242 -557 -325 -692 -41 -67 -60 -81 -70 -54 -3 8 10 115
28 238 54 349 71 544 57 651 -12 98 -49 189 -84 208 -27 14 -81 3 -103 -21
-31 -35 -64 -146 -90 -311 -54 -338 -70 -404 -96 -404 -21 0 -37 62 -64 235
-77 495 -64 644 103 1235 69 242 79 301 59 329 -27 37 -77 2 -190 -133 -239
-284 -389 -553 -426 -765 -17 -92 -12 -344 8 -506 10 -80 16 -147 14 -150 -6
-6 -50 49 -73 91 -28 54 -57 174 -79 333 -59 420 -52 514 60 814 126 339 139
393 103 423 -28 23 -63 -9 -124 -110 -65 -109 -172 -228 -280 -314 -41 -33
-152 -111 -246 -173 -182 -120 -316 -222 -341 -260 -22 -34 -11 -50 54 -82 34
-17 57 -34 56 -43 -1 -7 -15 -47 -32 -88 -38 -89 -82 -240 -111 -379 -24 -116
-51 -204 -105 -342 -95 -244 -227 -664 -241 -770 l-6 -49 33 -5 c19 -3 57 -8
85 -11 61 -6 1823 -8 1856 -1 13 3 35 7 50 10 15 4 30 15 33 26 19 61 76 67
128 13 30 -30 46 -38 94 -44 41 -6 1778 -13 2261 -9 6 0 12 5 12 11 0 19 94
198 162 311 259 424 346 871 219 1131 -67 139 -139 173 -204 97 -34 -40 -51
-48 -62 -30 -3 5 -9 69 -14 142 -6 104 -12 142 -29 173 -49 95 -754 874 -836
924 -41 26 -102 39 -147 31z m292 -723 c77 -52 100 -137 58 -218 -21 -42 -80
-78 -127 -79 -73 0 -182 124 -168 193 21 103 153 161 237 104z"/>
<path d="M2265 9966 c-38 -17 -84 -63 -149 -151 -29 -38 -85 -115 -125 -169
-41 -54 -126 -160 -190 -235 -147 -170 -237 -288 -257 -336 -13 -31 -14 -60
-8 -160 8 -149 1 -159 -61 -91 -49 53 -75 58 -126 23 -92 -61 -168 -259 -169
-435 0 -178 88 -443 238 -717 76 -138 259 -415 274 -415 126 -3 1767 1 1782 4
11 3 33 7 47 10 17 4 35 19 48 41 27 47 60 47 99 0 24 -30 38 -37 88 -45 65
-11 2015 -14 2102 -3 l53 6 -7 31 c-25 115 -132 404 -310 831 -18 44 -44 135
-58 203 -14 67 -41 162 -61 209 -19 48 -35 91 -35 95 0 4 16 8 36 8 154 0 61
143 -208 319 -64 42 -159 103 -210 136 -127 82 -210 163 -330 324 -119 158
-179 221 -209 221 -20 0 -21 -4 -16 -52 3 -29 29 -116 57 -192 88 -239 101
-298 107 -487 7 -215 -17 -430 -66 -600 -21 -70 -57 -159 -66 -159 -3 0 -5
159 -4 354 l0 353 -26 77 c-39 117 -108 241 -213 386 -102 139 -344 400 -371
400 -35 0 -19 -97 74 -472 36 -141 72 -296 80 -345 22 -122 29 -430 16 -668
-11 -202 -16 -245 -32 -245 -10 0 -25 51 -89 303 -66 260 -101 352 -144 378
-46 28 -73 24 -116 -19 -70 -70 -66 -153 34 -657 81 -409 77 -385 65 -385 -30
0 -203 337 -343 670 -165 390 -252 540 -311 540 -38 0 -49 -32 -42 -124 10
-139 94 -501 175 -756 22 -69 44 -143 48 -165 6 -36 6 -39 -9 -27 -22 18 -87
139 -138 254 -57 129 -109 293 -180 563 -125 475 -321 1014 -428 1178 -96 147
-166 207 -240 207 -25 -1 -59 -7 -76 -14z m9 -619 c54 -30 78 -67 83 -124 8
-89 -61 -173 -143 -173 -73 0 -138 82 -137 173 1 55 21 89 73 125 41 28 74 28
124 -1z"/>
<path d="M21651 9843 c-46 -23 -90 -85 -166 -238 -144 -290 -182 -480 -129
-647 9 -27 25 -55 37 -63 32 -22 112 -19 158 7 37 20 97 96 133 165 24 48 73
259 97 418 31 208 18 317 -43 359 -28 20 -44 20 -87 -1z"/>
<path d="M3493 9835 c-34 -14 -43 -43 -43 -129 0 -129 64 -429 125 -588 42
-110 113 -220 158 -249 36 -23 91 -20 137 8 115 68 83 336 -81 668 -58 118
-121 205 -186 257 -57 45 -72 49 -110 33z"/>
<path d="M17840 7589 c-768 -10 -1418 -67 -1780 -154 -125 -31 -302 -84 -313
-95 -5 -4 337 -8 760 -9 721 -1 1737 -12 2330 -27 l261 -6 11 53 c6 30 17 98
24 152 l13 97 -405 -2 c-223 -1 -629 -5 -901 -9z"/>
</g>
</svg>
